<?xml version="1.0" encoding="utf-8"?>
<!-- Generator: Adobe Illustrator 16.0.0, SVG Export Plug-In . SVG Version: 6.00 Build 0)  -->
<!DOCTYPE svg PUBLIC "-//W3C//DTD SVG 1.1//EN" "http://www.w3.org/Graphics/SVG/1.1/DTD/svg11.dtd">
<svg version="1.1" id="Layer_1" xmlns="http://www.w3.org/2000/svg" xmlns:xlink="http://www.w3.org/1999/xlink" x="0px" y="0px"
	 width="1349px" height="711px" viewBox="0 0 1349 711" enable-background="new 0 0 1349 711" xml:space="preserve">
<g>
	<path fill="#FEFAFD" stroke="#FEFAFD" stroke-width="1.5" d="M-391.604-233.822L-465.583-89.96l56.294,72.29L-391.604-233.822z"/>
	<path fill="#F9F6FB" stroke="#F9F6FB" stroke-width="1.5" d="M-391.604-233.822L-409.289-17.67l200.204-33.16L-391.604-233.822z"/>
	<path fill="#F8F5FA" stroke="#F8F5FA" stroke-width="1.5" d="M-391.604-233.822l182.52,182.992l-46.903-210.41L-391.604-233.822z"
		/>
	<path fill="#F2F0F7" stroke="#F2F0F7" stroke-width="1.5" d="M-255.988-261.24l46.903,210.41l106.492-75.933L-255.988-261.24z"/>
	<path fill="#F1F0F7" stroke="#F1F0F7" stroke-width="1.5" d="M-255.988-261.24l153.396,134.478l-37.86-126.652L-255.988-261.24z"/>
	<path fill="#EFEEF6" stroke="#EFEEF6" stroke-width="1.5" d="M-255.988-261.24l115.535,7.825l163.565-34.378L-255.988-261.24z"/>
	<path fill="#ECEBF5" stroke="#ECEBF5" stroke-width="1.5" d="M-140.453-253.415l37.86,126.652l125.705-161.03L-140.453-253.415z"/>
	<path fill="#E8E9F3" stroke="#E8E9F3" stroke-width="1.5" d="M23.112-287.793l-125.705,161.03L23.804-62.669L23.112-287.793z"/>
	<path fill="#E4E7F2" stroke="#E4E7F2" stroke-width="1.5" d="M23.112-287.793l0.691,225.124l102.953-134.36L23.112-287.793z"/>
	<path fill="#DFE4F0" stroke="#DFE4F0" stroke-width="1.5" d="M23.112-287.793l103.645,90.764l161.053-33.544L23.112-287.793z"/>
	<path fill="#D7E0EE" stroke="#D7E0EE" stroke-width="1.5" d="M23.112-287.793l264.697,57.22l228.006-65.931L23.112-287.793z"/>
	<path fill="#DFE4F1" stroke="#DFE4F1" stroke-width="1.5" d="M126.757-197.029L23.804-62.669l176.523-83.06L126.757-197.029z"/>
	<path fill="#DBE2EF" stroke="#DBE2EF" stroke-width="1.5" d="M126.757-197.029l73.57,51.301l87.482-84.845L126.757-197.029z"/>
	<path fill="#D6E0EE" stroke="#D6E0EE" stroke-width="1.5" d="M287.81-230.573l-87.482,84.845l122.585,48.21L287.81-230.573z"/>
	<path fill="#D3DFED" stroke="#D3DFED" stroke-width="1.5" d="M287.81-230.573l35.103,133.055l39.011-72.131L287.81-230.573z"/>
	<path fill="#D1DEED" stroke="#D1DEED" stroke-width="1.5" d="M287.81-230.573l74.113,60.924l56.168-78.952L287.81-230.573z"/>
	<path fill="#CCDCEC" stroke="#CCDCEC" stroke-width="1.5" d="M287.81-230.573l130.281-18.028l97.725-47.902L287.81-230.573z"/>
	<path fill="#C8DBEB" stroke="#C8DBEB" stroke-width="1.5" d="M418.091-248.602l-56.168,78.952l203.274,25.486L418.091-248.602z"/>
	<path fill="#C3D9EA" stroke="#C3D9EA" stroke-width="1.5" d="M418.091-248.602l147.106,104.438l-49.382-152.341L418.091-248.602z"
		/>
	<path fill="#BDD7E9" stroke="#BDD7E9" stroke-width="1.5" d="M515.815-296.504l49.382,152.341l68.651-83.787L515.815-296.504z"/>
	<path fill="#B5D5E8" stroke="#B5D5E8" stroke-width="1.5" d="M515.815-296.504l118.033,68.554l165.073-41.713L515.815-296.504z"/>
	<path fill="#ABD2E2" stroke="#ABD2E2" stroke-width="1.5" d="M515.815-296.504l283.106,26.841l118.681-28.018L515.815-296.504z"/>
	<path fill="#91C9CF" stroke="#91C9CF" stroke-width="1.5" d="M515.815-296.504l401.787-1.177l593.242-11.451L515.815-296.504z"/>
	<path fill="#B8D5E8" stroke="#B8D5E8" stroke-width="1.5" d="M633.849-227.95l-68.651,83.787l101.212,68.174L633.849-227.95z"/>
	<path fill="#B2D3E7" stroke="#B2D3E7" stroke-width="1.5" d="M633.849-227.95l32.561,151.961l81.758-83.607L633.849-227.95z"/>
	<path fill="#ADD2E3" stroke="#ADD2E3" stroke-width="1.5" d="M633.849-227.95l114.318,68.354l50.755-110.066L633.849-227.95z"/>
	<path fill="#A2CFDB" stroke="#A2CFDB" stroke-width="1.5" d="M798.922-269.663l-50.755,110.066l170.955,94.185L798.922-269.663z"/>
	<path fill="#9CCDD7" stroke="#9CCDD7" stroke-width="1.5" d="M798.922-269.663l120.2,204.251l-1.52-232.269L798.922-269.663z"/>
	<path fill="#91C9CE" stroke="#91C9CE" stroke-width="1.5" d="M917.603-297.681l1.52,232.269l196.887-110.923L917.603-297.681z"/>
	<path fill="#8CC5C8" stroke="#8CC5C8" stroke-width="1.5" d="M917.603-297.681l198.406,121.346l28.809-17.301L917.603-297.681z"/>
	<path fill="#8BC4C5" stroke="#8BC4C5" stroke-width="1.5" d="M917.603-297.681l227.215,104.045l41.094-33.646L917.603-297.681z"/>
	<path fill="#86BDBA" stroke="#86BDBA" stroke-width="1.5" d="M917.603-297.681l268.309,70.398l324.934-81.85L917.603-297.681z"/>
	<path fill="#87BFBD" stroke="#87BFBD" stroke-width="1.5" d="M1144.817-193.636l-28.809,17.301l137.841-1.327L1144.817-193.636z"/>
	<path fill="#86BEBB" stroke="#86BEBB" stroke-width="1.5" d="M1144.817-193.636l109.032,15.974l-67.938-49.62L1144.817-193.636z"/>
	<path fill="#83BAB3" stroke="#83BAB3" stroke-width="1.5" d="M1185.911-227.282l67.938,49.62l134.191-16.924L1185.911-227.282z"/>
	<path fill="#80B5AB" stroke="#80B5AB" stroke-width="1.5" d="M1185.911-227.282l202.13,32.696l122.804-114.546L1185.911-227.282z"
		/>
	<path fill="#81B7AF" stroke="#81B7AF" stroke-width="1.5" d="M1388.041-194.586l-134.191,16.924l59.845,52.356L1388.041-194.586z"
		/>
	<path fill="#7FB4AB" stroke="#7FB4AB" stroke-width="1.5" d="M1388.041-194.586l-74.347,69.28l69.014,89.412L1388.041-194.586z"/>
	<path fill="#7EAFA4" stroke="#7EAFA4" stroke-width="1.5" d="M1388.041-194.586l-5.333,158.692l161.92-22.912L1388.041-194.586z"/>
	<path fill="#7FAD9E" stroke="#7FAD9E" stroke-width="1.5" d="M1388.041-194.586l156.587,135.78l25.616-92.885L1388.041-194.586z"/>
	<path fill="#80AD9D" stroke="#80AD9D" stroke-width="1.5" d="M1388.041-194.586l182.203,42.896l-3.124-28.887L1388.041-194.586z"/>
	<path fill="#80AE9F" stroke="#80AE9F" stroke-width="1.5" d="M1388.041-194.586l179.079,14.009l-56.275-128.555L1388.041-194.586z"
		/>
	<path fill="#80A893" stroke="#80A893" stroke-width="1.5" d="M1510.845-309.132l56.275,128.555l188.67-34.81L1510.845-309.132z"/>
	<path fill="#7FA692" stroke="#7FA692" stroke-width="1.5" d="M1567.12-180.577l3.124,28.887l179.247-7.492L1567.12-180.577z"/>
	<path fill="#80A38C" stroke="#80A38C" stroke-width="1.5" d="M1567.12-180.577l182.371,21.395l6.299-56.204L1567.12-180.577z"/>
	<path fill="#7D9E86" stroke="#7D9E86" stroke-width="1.5" d="M1755.79-215.387l-6.299,56.204l12.652,344.211L1755.79-215.387z"/>
	<path fill="#659184" stroke="#659184" stroke-width="1.5" d="M1755.79-215.387l6.354,400.415l50.561,339.313L1755.79-215.387z"/>
	<path fill="#DCEBFD" stroke="#DCEBFD" stroke-width="1.5" d="M-465.583-89.96l17.485,494.629l29.932-95.305L-465.583-89.96z"/>
	<path fill="#ECF1FE" stroke="#ECF1FE" stroke-width="1.5" d="M-465.583-89.96l47.417,399.324l14.957-190.063L-465.583-89.96z"/>
	<path fill="#FBF8FD" stroke="#FBF8FD" stroke-width="1.5" d="M-465.583-89.96l62.374,209.261l-6.08-136.971L-465.583-89.96z"/>
	<path fill="#F6F3FB" stroke="#F6F3FB" stroke-width="1.5" d="M-209.085-50.83l-200.204,33.16l86.879,55.274L-209.085-50.83z"/>
	<path fill="#ECEDF8" stroke="#ECEDF8" stroke-width="1.5" d="M-209.085-50.83L-322.41,37.604l171.803,78.833L-209.085-50.83z"/>
	<path fill="#EBECF7" stroke="#EBECF7" stroke-width="1.5" d="M-209.085-50.83l58.478,167.268l41.637-153.401L-209.085-50.83z"/>
	<path fill="#EEECF6" stroke="#EEECF6" stroke-width="1.5" d="M-209.085-50.83l100.114,13.866l6.378-89.799L-209.085-50.83z"/>
	<path fill="#E9E9F4" stroke="#E9E9F4" stroke-width="1.5" d="M-102.593-126.763l-6.378,89.799L23.804-62.669L-102.593-126.763z"/>
	<path fill="#E6E7F4" stroke="#E6E7F4" stroke-width="1.5" d="M23.804-62.669l-132.774,25.705l99.705,64.543L23.804-62.669z"/>
	<path fill="#E1E4F2" stroke="#E1E4F2" stroke-width="1.5" d="M23.804-62.669L-9.266,27.579l177.508-45.428L23.804-62.669z"/>
	<path fill="#DEE3F1" stroke="#DEE3F1" stroke-width="1.5" d="M23.804-62.669l144.438,44.82l32.085-127.88L23.804-62.669z"/>
	<path fill="#D7E0EF" stroke="#D7E0EF" stroke-width="1.5" d="M200.327-145.729l-32.085,127.88l154.67-79.67L200.327-145.729z"/>
	<path fill="#D4DEEE" stroke="#D4DEEE" stroke-width="1.5" d="M322.912-97.519l-154.67,79.67l160.025,45.518L322.912-97.519z"/>
	<path fill="#CCDAED" stroke="#CCDAED" stroke-width="1.5" d="M322.912-97.519l5.355,125.188l127.377,22.535L322.912-97.519z"/>
	<path fill="#CDDBEC" stroke="#CDDBEC" stroke-width="1.5" d="M322.912-97.519L455.645,50.204l-93.722-219.854L322.912-97.519z"/>
	<path fill="#C5D9EB" stroke="#C5D9EB" stroke-width="1.5" d="M361.923-169.649l93.722,219.854l109.553-194.367L361.923-169.649z"/>
	<path fill="#BDD6EA" stroke="#BDD6EA" stroke-width="1.5" d="M565.197-144.163L455.645,50.204l161.215-77.637L565.197-144.163z"/>
	<path fill="#B7D4E8" stroke="#B7D4E8" stroke-width="1.5" d="M565.197-144.163l51.662,116.73l49.55-48.557L565.197-144.163z"/>
	<path fill="#ADD1E5" stroke="#ADD1E5" stroke-width="1.5" d="M666.409-75.989l-49.55,48.557l213.973,43.535L666.409-75.989z"/>
	<path fill="#A9CFE1" stroke="#A9CFE1" stroke-width="1.5" d="M666.409-75.989l164.423,92.092l-82.665-175.699L666.409-75.989z"/>
	<path fill="#A0CCDB" stroke="#A0CCDB" stroke-width="1.5" d="M748.167-159.597l82.665,175.699l88.29-81.515L748.167-159.597z"/>
	<path fill="#97C9D5" stroke="#97C9D5" stroke-width="1.5" d="M919.122-65.412l-88.29,81.515L942.397,4.081L919.122-65.412z"/>
	<path fill="#8EC7CE" stroke="#8EC7CE" stroke-width="1.5" d="M919.122-65.412l23.275,69.493l173.611-180.416L919.122-65.412z"/>
	<path fill="#8AC4CA" stroke="#8AC4CA" stroke-width="1.5" d="M1116.009-176.335L942.397,4.081l99.307,69.586L1116.009-176.335z"/>
	<path fill="#86C0C3" stroke="#86C0C3" stroke-width="1.5" d="M1116.009-176.335l-74.305,250.002l118.1-6.525L1116.009-176.335z"/>
	<path fill="#86BDBD" stroke="#86BDBD" stroke-width="1.5" d="M1116.009-176.335l43.795,243.477l94.046-244.804L1116.009-176.335z"
		/>
	<path fill="#82BAB6" stroke="#82BAB6" stroke-width="1.5" d="M1253.85-177.662l-94.046,244.804l153.891-192.447L1253.85-177.662z"
		/>
	<path fill="#7EB6B4" stroke="#7EB6B4" stroke-width="1.5" d="M1313.694-125.306L1159.804,67.142l165.211,26.575L1313.694-125.306z"
		/>
	<path fill="#7EB4AD" stroke="#7EB4AD" stroke-width="1.5" d="M1313.694-125.306l11.32,219.022l57.693-129.61L1313.694-125.306z"/>
	<path fill="#7DACA1" stroke="#7DACA1" stroke-width="1.5" d="M1544.628-58.806l-161.92,22.912l93.324,84.107L1544.628-58.806z"/>
	<path fill="#7DA898" stroke="#7DA898" stroke-width="1.5" d="M1544.628-58.806l-68.596,107.02l174.393-80.857L1544.628-58.806z"/>
	<path fill="#7EA795" stroke="#7EA795" stroke-width="1.5" d="M1544.628-58.806l105.797,26.162l-80.181-119.047L1544.628-58.806z"/>
	<path fill="#7EA48F" stroke="#7EA48F" stroke-width="1.5" d="M1570.244-151.69l80.181,119.047l99.066-126.539L1570.244-151.69z"/>
	<path fill="#7DA089" stroke="#7DA089" stroke-width="1.5" d="M1749.491-159.183l-99.066,126.539l92.814,107.91L1749.491-159.183z"
		/>
	<path fill="#779B86" stroke="#779B86" stroke-width="1.5" d="M1749.491-159.183l-6.252,234.449l18.904,109.762L1749.491-159.183z"
		/>
	<path fill="#F3F3FC" stroke="#F3F3FC" stroke-width="1.5" d="M-409.289-17.67l6.08,136.971l80.799-81.696L-409.289-17.67z"/>
	<path fill="#E7ECFB" stroke="#E7ECFB" stroke-width="1.5" d="M-322.41,37.604l-80.799,81.696l157.501,54.683L-322.41,37.604z"/>
	<path fill="#E2E8F9" stroke="#E2E8F9" stroke-width="1.5" d="M-322.41,37.604l76.702,136.379l95.101-57.546L-322.41,37.604z"/>
	<path fill="#E4E7F5" stroke="#E4E7F5" stroke-width="1.5" d="M-108.971-36.964l-41.637,153.401L-9.266,27.579L-108.971-36.964z"/>
	<path fill="#D7E0F4" stroke="#D7E0F4" stroke-width="1.5" d="M-9.266,27.579l-141.342,88.858l131.393,89.18L-9.266,27.579z"/>
	<path fill="#CFDBF2" stroke="#CFDBF2" stroke-width="1.5" d="M-9.266,27.579l-9.949,178.038L93.478,178.71L-9.266,27.579z"/>
	<path fill="#D6DEF1" stroke="#D6DEF1" stroke-width="1.5" d="M-9.266,27.579L93.478,178.71l74.765-196.559L-9.266,27.579z"/>
	<path fill="#CAD8F0" stroke="#CAD8F0" stroke-width="1.5" d="M168.242-17.849L93.478,178.71l129.164,4.922L168.242-17.849z"/>
	<path fill="#CCDAEF" stroke="#CCDAEF" stroke-width="1.5" d="M168.242-17.849l54.399,201.48L328.268,27.669L168.242-17.849z"/>
	<path fill="#BED3EE" stroke="#BED3EE" stroke-width="1.5" d="M328.268,27.669L222.642,183.632l148.247,17.057L328.268,27.669z"/>
	<path fill="#BED3EC" stroke="#BED3EC" stroke-width="1.5" d="M328.268,27.669l42.621,173.02l84.756-150.484L328.268,27.669z"/>
	<path fill="#B3D0EB" stroke="#B3D0EB" stroke-width="1.5" d="M455.645,50.204l-84.756,150.484l130.638-69.346L455.645,50.204z"/>
	<path fill="#B5D1EB" stroke="#B5D1EB" stroke-width="1.5" d="M455.645,50.204l45.882,81.139l-3.061-49.171L455.645,50.204z"/>
	<path fill="#B9D3EA" stroke="#B9D3EA" stroke-width="1.5" d="M455.645,50.204l42.821,31.968L616.859-27.433L455.645,50.204z"/>
	<path fill="#A8CCE9" stroke="#A8CCE9" stroke-width="1.5" d="M498.466,82.172l3.061,49.171l187.111,35.607L498.466,82.172z"/>
	<path fill="#ACCEE9" stroke="#ACCEE9" stroke-width="1.5" d="M498.466,82.172l190.172,84.778L616.859-27.433L498.466,82.172z"/>
	<path fill="#A4CCE4" stroke="#A4CCE4" stroke-width="1.5" d="M616.859-27.433l71.778,194.383L830.832,16.103L616.859-27.433z"/>
	<path fill="#93C5DF" stroke="#93C5DF" stroke-width="1.5" d="M830.832,16.103L688.638,166.95l115.658,26.513L830.832,16.103z"/>
	<path fill="#89C1DA" stroke="#89C1DA" stroke-width="1.5" d="M830.832,16.103l-26.536,177.36l94.751,15.594L830.832,16.103z"/>
	<path fill="#8DC4D6" stroke="#8DC4D6" stroke-width="1.5" d="M830.832,16.103l68.215,192.954L942.397,4.081L830.832,16.103z"/>
	<path fill="#82C0D0" stroke="#82C0D0" stroke-width="1.5" d="M942.397,4.081l-43.351,204.976l142.657-135.39L942.397,4.081z"/>
	<path fill="#77BBCB" stroke="#77BBCB" stroke-width="1.5" d="M1041.704,73.667l-142.657,135.39l217.813-93.322L1041.704,73.667z"/>
	<path fill="#7ABAC3" stroke="#7ABAC3" stroke-width="1.5" d="M1041.704,73.667l75.156,42.067l42.943-48.593L1041.704,73.667z"/>
	<path fill="#73B5BF" stroke="#73B5BF" stroke-width="1.5" d="M1159.804,67.142l-42.943,48.593l45.256,76.586L1159.804,67.142z"/>
	<path fill="#72B2B9" stroke="#72B2B9" stroke-width="1.5" d="M1159.804,67.142l2.313,125.179l162.898-98.604L1159.804,67.142z"/>
	<path fill="#77AEA8" stroke="#77AEA8" stroke-width="1.5" d="M1382.708-35.894l-57.693,129.61l151.018-45.503L1382.708-35.894z"/>
	<path fill="#6AA7A7" stroke="#6AA7A7" stroke-width="1.5" d="M1476.032,48.214l-151.018,45.503l84.226,160.099L1476.032,48.214z"/>
	<path fill="#65A1A0" stroke="#65A1A0" stroke-width="1.5" d="M1476.032,48.214l-66.792,205.602l131.273-68.994L1476.032,48.214z"/>
	<path fill="#6BA099" stroke="#6BA099" stroke-width="1.5" d="M1476.032,48.214l64.481,136.607l95.685-59.922L1476.032,48.214z"/>
	<path fill="#76A396" stroke="#76A396" stroke-width="1.5" d="M1476.032,48.214l160.166,76.686l14.227-157.543L1476.032,48.214z"/>
	<path fill="#749D8D" stroke="#749D8D" stroke-width="1.5" d="M1650.425-32.644l-14.227,157.543l107.041-49.633L1650.425-32.644z"/>
	<path fill="#6A978A" stroke="#6A978A" stroke-width="1.5" d="M1743.239,75.267l-107.041,49.633l125.945,60.129L1743.239,75.267z"/>
	<path fill="#DAE8FB" stroke="#DAE8FB" stroke-width="1.5" d="M-403.209,119.301l-14.957,190.063l172.458-135.381L-403.209,119.301z
		"/>
	<path fill="#CDE1F8" stroke="#CDE1F8" stroke-width="1.5" d="M-245.708,173.983l-172.458,135.381l228.046-60.42L-245.708,173.983z"
		/>
	<path fill="#D6E2F8" stroke="#D6E2F8" stroke-width="1.5" d="M-245.708,173.983l55.588,74.961l39.513-132.507L-245.708,173.983z"/>
	<path fill="#CFDEF5" stroke="#CFDEF5" stroke-width="1.5" d="M-150.607,116.438l-39.513,132.507l170.905-43.327L-150.607,116.438z"
		/>
	<path fill="#BED8F4" stroke="#BED8F4" stroke-width="1.5" d="M-19.215,205.617l-170.905,43.327l32.286,116.328L-19.215,205.617z"/>
	<path fill="#B8D5F2" stroke="#B8D5F2" stroke-width="1.5" d="M-19.215,205.617l-138.619,159.655l174.085-91.465L-19.215,205.617z"
		/>
	<path fill="#C0D5F1" stroke="#C0D5F1" stroke-width="1.5" d="M-19.215,205.617l35.466,68.19l77.227-95.098L-19.215,205.617z"/>
	<path fill="#BAD3F0" stroke="#BAD3F0" stroke-width="1.5" d="M93.478,178.71l-77.227,95.098l74.426-5.784L93.478,178.71z"/>
	<path fill="#BCD3F0" stroke="#BCD3F0" stroke-width="1.5" d="M93.478,178.71l-2.801,89.313l131.965-84.392L93.478,178.71z"/>
	<path fill="#B1CFEE" stroke="#B1CFEE" stroke-width="1.5" d="M222.642,183.632L90.677,268.023l126.564,27.591L222.642,183.632z"/>
	<path fill="#B0CEED" stroke="#B0CEED" stroke-width="1.5" d="M222.642,183.632l-5.4,111.982l153.647-94.926L222.642,183.632z"/>
	<path fill="#A8CBEC" stroke="#A8CBEC" stroke-width="1.5" d="M370.889,200.688l-153.647,94.926l209.148-53.95L370.889,200.688z"/>
	<path fill="#AACBEB" stroke="#AACBEB" stroke-width="1.5" d="M370.889,200.688l55.501,40.976l75.137-110.321L370.889,200.688z"/>
	<path fill="#9DC7EA" stroke="#9DC7EA" stroke-width="1.5" d="M501.526,131.343L426.39,241.664l102.123,78.446L501.526,131.343z"/>
	<path fill="#94C4E8" stroke="#94C4E8" stroke-width="1.5" d="M501.526,131.343l26.986,188.768l111.133-39.307L501.526,131.343z"/>
	<path fill="#99C6E8" stroke="#99C6E8" stroke-width="1.5" d="M501.526,131.343l138.119,149.461l48.992-113.854L501.526,131.343z"/>
	<path fill="#8BC1E3" stroke="#8BC1E3" stroke-width="1.5" d="M688.638,166.95l-48.992,113.854l164.65-87.341L688.638,166.95z"/>
	<path fill="#7ABCDF" stroke="#7ABCDF" stroke-width="1.5" d="M804.296,193.463l-164.65,87.341l133.867,76.371L804.296,193.463z"/>
	<path fill="#76BBDA" stroke="#76BBDA" stroke-width="1.5" d="M804.296,193.463l-30.783,163.712l125.534-148.118L804.296,193.463z"
		/>
	<path fill="#66B6D5" stroke="#66B6D5" stroke-width="1.5" d="M899.047,209.057L773.513,357.175l150.277-11.418L899.047,209.057z"/>
	<path fill="#60B3CC" stroke="#60B3CC" stroke-width="1.5" d="M899.047,209.057l24.743,136.7l203.977-81.93L899.047,209.057z"/>
	<path fill="#6CB5C8" stroke="#6CB5C8" stroke-width="1.5" d="M899.047,209.057l228.72,54.771l-10.906-148.093L899.047,209.057z"/>
	<path fill="#69B1C0" stroke="#69B1C0" stroke-width="1.5" d="M1116.86,115.734l10.906,148.093l34.35-71.507L1116.86,115.734z"/>
	<path fill="#5CACBD" stroke="#5CACBD" stroke-width="1.5" d="M1162.116,192.32l-34.35,71.507l64.986,22.369L1162.116,192.32z"/>
	<path fill="#66ACB7" stroke="#66ACB7" stroke-width="1.5" d="M1162.116,192.32l30.637,93.876l132.262-192.479L1162.116,192.32z"/>
	<path fill="#5EA6AF" stroke="#5EA6AF" stroke-width="1.5" d="M1325.015,93.717l-132.262,192.479l216.487-32.381L1325.015,93.717z"
		/>
	<path fill="#519A9F" stroke="#519A9F" stroke-width="1.5" d="M1540.514,184.821l-131.273,68.994l45.382,94.693L1540.514,184.821z"
		/>
	<path fill="#529799" stroke="#529799" stroke-width="1.5" d="M1540.514,184.821l-85.892,163.688l144.258-103.954L1540.514,184.821z
		"/>
	<path fill="#629995" stroke="#629995" stroke-width="1.5" d="M1540.514,184.821l58.366,59.733l37.318-119.655L1540.514,184.821z"/>
	<path fill="#62958E" stroke="#62958E" stroke-width="1.5" d="M1636.198,124.899l-37.318,119.655l163.264-59.526L1636.198,124.899z"
		/>
	<path fill="#538F89" stroke="#538F89" stroke-width="1.5" d="M1762.144,185.028l-163.264,59.526l158.412,83.48L1762.144,185.028z"
		/>
	<path fill="#498881" stroke="#498881" stroke-width="1.5" d="M1762.144,185.028l-4.852,143.007l24.514,65.489L1762.144,185.028z"/>
	<path fill="#3A827C" stroke="#3A827C" stroke-width="1.5" d="M1762.144,185.028l19.662,208.496l30.898,130.816L1762.144,185.028z"
		/>
	<path fill="#B9DDF7" stroke="#B9DDF7" stroke-width="1.5" d="M-418.166,309.364l-29.932,95.305l230.672-46.381L-418.166,309.364z"
		/>
	<path fill="#C0DDF7" stroke="#C0DDF7" stroke-width="1.5" d="M-418.166,309.364l200.74,48.924l27.306-109.344L-418.166,309.364z"/>
	<path fill="#ACD7EF" stroke="#ACD7EF" stroke-width="1.5" d="M-217.426,358.288l-230.672,46.381l231.015,18.635L-217.426,358.288z"
		/>
	<path fill="#AAD3EF" stroke="#AAD3EF" stroke-width="1.5" d="M-217.426,358.288l0.343,65.016l59.249-58.031L-217.426,358.288z"/>
	<path fill="#B7D8F4" stroke="#B7D8F4" stroke-width="1.5" d="M-217.426,358.288l59.592,6.984l-32.286-116.328L-217.426,358.288z"/>
	<path fill="#A5CEED" stroke="#A5CEED" stroke-width="1.5" d="M16.251,273.808l-174.085,91.465l148.069,99.72L16.251,273.808z"/>
	<path fill="#A0CBEB" stroke="#A0CBEB" stroke-width="1.5" d="M16.251,273.808L-9.765,464.992l82.464-86.231L16.251,273.808z"/>
	<path fill="#ACCEEF" stroke="#ACCEEF" stroke-width="1.5" d="M16.251,273.808l56.448,104.953l17.978-110.737L16.251,273.808z"/>
	<path fill="#A6CCEE" stroke="#A6CCEE" stroke-width="1.5" d="M90.677,268.023L72.699,378.761l144.542-83.146L90.677,268.023z"/>
	<path fill="#98C7E9" stroke="#98C7E9" stroke-width="1.5" d="M217.241,295.614L72.699,378.761l141.239,51.213L217.241,295.614z"/>
	<path fill="#8BC2E4" stroke="#8BC2E4" stroke-width="1.5" d="M217.241,295.614l-3.303,134.359l250.113,8.297L217.241,295.614z"/>
	<path fill="#94C4E9" stroke="#94C4E9" stroke-width="1.5" d="M217.241,295.614l246.811,142.656L426.39,241.664L217.241,295.614z"/>
	<path fill="#88C1E7" stroke="#88C1E7" stroke-width="1.5" d="M426.39,241.664l37.662,196.606l64.461-118.16L426.39,241.664z"/>
	<path fill="#77BBDE" stroke="#77BBDE" stroke-width="1.5" d="M528.513,320.11l-64.461,118.16l45.93-6.4L528.513,320.11z"/>
	<path fill="#7EBDE5" stroke="#7EBDE5" stroke-width="1.5" d="M528.513,320.11l-18.531,111.76l129.664-151.066L528.513,320.11z"/>
	<path fill="#6DB8DD" stroke="#6DB8DD" stroke-width="1.5" d="M639.646,280.804L509.981,431.87l203.895,33.82L639.646,280.804z"/>
	<path fill="#6AB7DE" stroke="#6AB7DE" stroke-width="1.5" d="M639.646,280.804l74.23,184.887l59.637-108.516L639.646,280.804z"/>
	<path fill="#58B1D1" stroke="#58B1D1" stroke-width="1.5" d="M773.513,357.175L713.876,465.69l117.759-54.939L773.513,357.175z"/>
	<path fill="#5AB1D3" stroke="#5AB1D3" stroke-width="1.5" d="M773.513,357.175l58.122,53.576l92.155-64.994L773.513,357.175z"/>
	<path fill="#4DADC8" stroke="#4DADC8" stroke-width="1.5" d="M923.79,345.757l-92.155,64.994l61.214,56.178L923.79,345.757z"/>
	<path fill="#40A9C0" stroke="#40A9C0" stroke-width="1.5" d="M923.79,345.757l-30.941,121.172l125.781,13.563L923.79,345.757z"/>
	<path fill="#49ACC6" stroke="#49ACC6" stroke-width="1.5" d="M923.79,345.757l94.84,134.734l109.137-216.664L923.79,345.757z"/>
	<path fill="#4AA8BF" stroke="#4AA8BF" stroke-width="1.5" d="M1127.767,263.827L1018.63,480.491l174.123-194.295L1127.767,263.827z
		"/>
	<path fill="#3DA3B4" stroke="#3DA3B4" stroke-width="1.5" d="M1192.753,286.196L1018.63,480.491l237.221-83.314L1192.753,286.196z"
		/>
	<path fill="#4AA1AF" stroke="#4AA1AF" stroke-width="1.5" d="M1192.753,286.196l63.098,110.98l153.39-143.361L1192.753,286.196z"/>
	<path fill="#429BA6" stroke="#429BA6" stroke-width="1.5" d="M1409.24,253.815l-153.39,143.361l198.771-48.668L1409.24,253.815z"/>
	<path fill="#30959C" stroke="#30959C" stroke-width="1.5" d="M1454.622,348.509l-198.771,48.668l159.357,86.557L1454.622,348.509z"
		/>
	<path fill="#298D8D" stroke="#298D8D" stroke-width="1.5" d="M1454.622,348.509l-39.414,135.225l128.217,1.598L1454.622,348.509z"
		/>
	<path fill="#298B89" stroke="#298B89" stroke-width="1.5" d="M1454.622,348.509l88.803,136.822l10.056-7.759L1454.622,348.509z"/>
	<path fill="#3D9196" stroke="#3D9196" stroke-width="1.5" d="M1454.622,348.509l98.858,129.063l45.399-233.018L1454.622,348.509z"
		/>
	<path fill="#3F8C8D" stroke="#3F8C8D" stroke-width="1.5" d="M1598.88,244.555l-45.399,233.018l203.812-149.537L1598.88,244.555z"
		/>
	<path fill="#33857F" stroke="#33857F" stroke-width="1.5" d="M1757.292,328.035L1553.48,477.572l228.325-84.048L1757.292,328.035z"
		/>
	<path fill="#91CDD1" stroke="#91CDD1" stroke-width="1.5" d="M-448.098,404.669l25.802,323.377l30.705-151.45L-448.098,404.669z"/>
	<path fill="#94D1DB" stroke="#94D1DB" stroke-width="1.5" d="M-448.098,404.669l56.507,171.927l81.775-20.44L-448.098,404.669z"/>
	<path fill="#9ED3E3" stroke="#9ED3E3" stroke-width="1.5" d="M-448.098,404.669l138.282,151.486l92.732-132.852L-448.098,404.669z"
		/>
	<path fill="#8FCBD9" stroke="#8FCBD9" stroke-width="1.5" d="M-217.083,423.304l-92.732,132.852l151.334-33.467L-217.083,423.304z"
		/>
	<path fill="#9BCFE4" stroke="#9BCFE4" stroke-width="1.5" d="M-217.083,423.304l58.602,99.385l0.647-157.416L-217.083,423.304z"/>
	<path fill="#94CAE0" stroke="#94CAE0" stroke-width="1.5" d="M-157.834,365.272l-0.647,157.416l148.717-57.696L-157.834,365.272z"
		/>
	<path fill="#84C4D5" stroke="#84C4D5" stroke-width="1.5" d="M-9.765,464.992l-148.717,57.696l170.292,2.693L-9.765,464.992z"/>
	<path fill="#8BC4DC" stroke="#8BC4DC" stroke-width="1.5" d="M-9.765,464.992l21.575,60.39l60.889-146.621L-9.765,464.992z"/>
	<path fill="#80C1D5" stroke="#80C1D5" stroke-width="1.5" d="M72.699,378.761L11.811,525.382l66.914,43.146L72.699,378.761z"/>
	<path fill="#84C1DA" stroke="#84C1DA" stroke-width="1.5" d="M72.699,378.761l6.025,189.767l135.214-138.554L72.699,378.761z"/>
	<path fill="#73BBCF" stroke="#73BBCF" stroke-width="1.5" d="M213.938,429.974L78.725,568.527l246.37-40.407L213.938,429.974z"/>
	<path fill="#75BAD5" stroke="#75BAD5" stroke-width="1.5" d="M213.938,429.974l111.156,98.146l138.957-89.85L213.938,429.974z"/>
	<path fill="#65B5CC" stroke="#65B5CC" stroke-width="1.5" d="M464.052,438.271l-138.957,89.85l110.881,22.688L464.052,438.271z"/>
	<path fill="#5EB3CB" stroke="#5EB3CB" stroke-width="1.5" d="M464.052,438.271l-28.076,112.537l123.672-27.743L464.052,438.271z"/>
	<path fill="#65B5D2" stroke="#65B5D2" stroke-width="1.5" d="M464.052,438.271l95.596,84.794l-49.666-91.194L464.052,438.271z"/>
	<path fill="#5BB2CF" stroke="#5BB2CF" stroke-width="1.5" d="M509.981,431.87l49.666,91.194l154.229-57.374L509.981,431.87z"/>
	<path fill="#4BADC5" stroke="#4BADC5" stroke-width="1.5" d="M713.876,465.69l-154.229,57.374l104.89,50.55L713.876,465.69z"/>
	<path fill="#3EA8BE" stroke="#3EA8BE" stroke-width="1.5" d="M713.876,465.69l-49.339,107.924l172.147-19.425L713.876,465.69z"/>
	<path fill="#45ABC3" stroke="#45ABC3" stroke-width="1.5" d="M713.876,465.69l122.809,88.499l-5.05-143.438L713.876,465.69z"/>
	<path fill="#3FA9BE" stroke="#3FA9BE" stroke-width="1.5" d="M831.635,410.751l5.05,143.438l56.164-87.261L831.635,410.751z"/>
	<path fill="#31A4B4" stroke="#31A4B4" stroke-width="1.5" d="M892.849,466.929l-56.164,87.261l103.65-24.503L892.849,466.929z"/>
	<path fill="#30A3B4" stroke="#30A3B4" stroke-width="1.5" d="M892.849,466.929l47.486,62.758l78.295-49.195L892.849,466.929z"/>
	<path fill="#209DA7" stroke="#209DA7" stroke-width="1.5" d="M1018.63,480.491l-78.295,49.195l178.945,50.957L1018.63,480.491z"/>
	<path fill="#1D9AA0" stroke="#1D9AA0" stroke-width="1.5" d="M1018.63,480.491l100.65,100.152l48.115-54.813L1018.63,480.491z"/>
	<path fill="#2A9CA7" stroke="#2A9CA7" stroke-width="1.5" d="M1018.63,480.491l148.766,45.339l88.455-128.653L1018.63,480.491z"/>
	<path fill="#24959A" stroke="#24959A" stroke-width="1.5" d="M1255.851,397.177l-88.455,128.653l247.813-42.097L1255.851,397.177z"
		/>
	<path fill="#138C88" stroke="#138C88" stroke-width="1.5" d="M1415.208,483.733l-247.813,42.097l215.549,99.346L1415.208,483.733z"
		/>
	<path fill="#12847A" stroke="#12847A" stroke-width="1.5" d="M1415.208,483.733l-32.264,141.442l135.58-60.117L1415.208,483.733z"
		/>
	<path fill="#17867E" stroke="#17867E" stroke-width="1.5" d="M1415.208,483.733l103.316,81.325l24.9-79.728L1415.208,483.733z"/>
	<path fill="#128072" stroke="#128072" stroke-width="1.5" d="M1543.425,485.331l-24.9,79.728l108.796-5.724L1543.425,485.331z"/>
	<path fill="#188277" stroke="#188277" stroke-width="1.5" d="M1543.425,485.331l83.896,74.004l-73.84-81.763L1543.425,485.331z"/>
	<path fill="#1F8075" stroke="#1F8075" stroke-width="1.5" d="M1553.48,477.572l73.84,81.763l154.485-165.811L1553.48,477.572z"/>
	<path fill="#1C7A6A" stroke="#1C7A6A" stroke-width="1.5" d="M1781.806,393.524L1627.32,559.335l185.384-34.994L1781.806,393.524z"
		/>
	<path fill="#8EBEBA" stroke="#8EBEBA" stroke-width="1.5" d="M-391.591,576.596l-30.705,151.45l159.061-26.395L-391.591,576.596z"
		/>
	<path fill="#8CC4C5" stroke="#8CC4C5" stroke-width="1.5" d="M-391.591,576.596l128.355,125.056l-46.58-145.496L-391.591,576.596z"
		/>
	<path fill="#88BBBA" stroke="#88BBBA" stroke-width="1.5" d="M-309.815,556.155l46.58,145.496l64.757,7.035L-309.815,556.155z"/>
	<path fill="#86C1C6" stroke="#86C1C6" stroke-width="1.5" d="M-309.815,556.155l111.337,152.531l39.997-185.998L-309.815,556.155z"
		/>
	<path fill="#81B5B7" stroke="#81B5B7" stroke-width="1.5" d="M-158.481,522.688l-39.997,185.998l177.821,27.646L-158.481,522.688z"
		/>
	<path fill="#7DBAC2" stroke="#7DBAC2" stroke-width="1.5" d="M-158.481,522.688l137.824,213.645l32.468-210.951L-158.481,522.688z"
		/>
	<path fill="#78B5BD" stroke="#78B5BD" stroke-width="1.5" d="M11.811,525.382l-32.468,210.951l99.382-167.806L11.811,525.382z"/>
	<path fill="#76ADB0" stroke="#76ADB0" stroke-width="1.5" d="M78.725,568.527l-99.382,167.806l122.113-35.765L78.725,568.527z"/>
	<path fill="#71ACB1" stroke="#71ACB1" stroke-width="1.5" d="M78.725,568.527l22.731,132.041L241,702.126L78.725,568.527z"/>
	<path fill="#6CB0BC" stroke="#6CB0BC" stroke-width="1.5" d="M78.725,568.527L241,702.126l84.095-174.006L78.725,568.527z"/>
	<path fill="#66A6AE" stroke="#66A6AE" stroke-width="1.5" d="M325.095,528.12L241,702.126l145.671,41.954L325.095,528.12z"/>
	<path fill="#60AAB8" stroke="#60AAB8" stroke-width="1.5" d="M325.095,528.12l61.576,215.96l49.305-193.272L325.095,528.12z"/>
	<path fill="#5BA1A8" stroke="#5BA1A8" stroke-width="1.5" d="M435.976,550.808L386.671,744.08l111.703-17.859L435.976,550.808z"/>
	<path fill="#56A8B7" stroke="#56A8B7" stroke-width="1.5" d="M435.976,550.808l62.398,175.413l61.273-203.156L435.976,550.808z"/>
	<path fill="#4FA5B5" stroke="#4FA5B5" stroke-width="1.5" d="M559.647,523.064l-61.273,203.156l166.163-152.606L559.647,523.064z"
		/>
	<path fill="#4A9EAB" stroke="#4A9EAB" stroke-width="1.5" d="M664.537,573.614L498.374,726.221l209.129-75.677L664.537,573.614z"/>
	<path fill="#3EA1B1" stroke="#3EA1B1" stroke-width="1.5" d="M664.537,573.614l42.966,76.93l129.182-96.354L664.537,573.614z"/>
	<path fill="#3899A2" stroke="#3899A2" stroke-width="1.5" d="M836.685,554.189l-129.182,96.354l135.165,57.84L836.685,554.189z"/>
	<path fill="#2F9BA5" stroke="#2F9BA5" stroke-width="1.5" d="M836.685,554.189l5.983,154.194l97.667-178.697L836.685,554.189z"/>
	<path fill="#2B9193" stroke="#2B9193" stroke-width="1.5" d="M940.335,529.687l-97.667,178.697l110.224,57.533L940.335,529.687z"/>
	<path fill="#209394" stroke="#209394" stroke-width="1.5" d="M940.335,529.687l12.557,236.23l166.389-185.273L940.335,529.687z"/>
	<path fill="#1E8780" stroke="#1E8780" stroke-width="1.5" d="M1119.28,580.644L952.892,765.917l164.727-23.514L1119.28,580.644z"/>
	<path fill="#1A877E" stroke="#1A877E" stroke-width="1.5" d="M1119.28,580.644l-1.662,161.76l76.404-63.701L1119.28,580.644z"/>
	<path fill="#1A8F8C" stroke="#1A8F8C" stroke-width="1.5" d="M1119.28,580.644l74.742,98.059l-26.627-152.872L1119.28,580.644z"/>
	<path fill="#168881" stroke="#168881" stroke-width="1.5" d="M1167.396,525.83l26.627,152.872l188.922-53.526L1167.396,525.83z"/>
	<path fill="#137A68" stroke="#137A68" stroke-width="1.5" d="M1382.944,625.176l-188.922,53.526l206.572,81.428L1382.944,625.176z"
		/>
	<path fill="#12725A" stroke="#12725A" stroke-width="1.5" d="M1382.944,625.176l17.65,134.954l142.385-33.52L1382.944,625.176z"/>
	<path fill="#127864" stroke="#127864" stroke-width="1.5" d="M1382.944,625.176l160.035,101.435l-24.455-161.552L1382.944,625.176z
		"/>
	<path fill="#127157" stroke="#127157" stroke-width="1.5" d="M1518.524,565.059l24.455,161.552l96.486-32.238L1518.524,565.059z"/>
	<path fill="#127660" stroke="#127660" stroke-width="1.5" d="M1518.524,565.059l120.941,129.313l-12.146-135.037L1518.524,565.059z
		"/>
	<path fill="#12725A" stroke="#12725A" stroke-width="1.5" d="M1627.32,559.335l12.146,135.037l173.238-170.031L1627.32,559.335z"/>
	<path fill="#126848" stroke="#126848" stroke-width="1.5" d="M1812.704,524.341l-173.238,170.031l179.166,26.41L1812.704,524.341z"
		/>
	<path fill="#90AF9E" stroke="#90AF9E" stroke-width="1.5" d="M-422.296,728.046l35.642,178.298l30.683-121.805L-422.296,728.046z"
		/>
	<path fill="#8DB5AB" stroke="#8DB5AB" stroke-width="1.5" d="M-422.296,728.046l66.324,56.493l92.736-82.888L-422.296,728.046z"/>
	<path fill="#8BAFA1" stroke="#8BAFA1" stroke-width="1.5" d="M-263.235,701.651l-92.736,82.888l76.691,62.759L-263.235,701.651z"/>
	<path fill="#88AFA5" stroke="#88AFA5" stroke-width="1.5" d="M-263.235,701.651l-16.045,145.646l80.802-138.611L-263.235,701.651z"
		/>
	<path fill="#86A89B" stroke="#86A89B" stroke-width="1.5" d="M-198.479,708.687l-80.802,138.611l108.794-9.104L-198.479,708.687z"
		/>
	<path fill="#82A79D" stroke="#82A79D" stroke-width="1.5" d="M-198.479,708.687l27.992,129.508l111.142-48.147L-198.479,708.687z"
		/>
	<path fill="#7FA9A3" stroke="#7FA9A3" stroke-width="1.5" d="M-198.479,708.687l139.134,81.36l38.688-53.714L-198.479,708.687z"/>
	<path fill="#799B90" stroke="#799B90" stroke-width="1.5" d="M-20.657,736.333l-38.688,53.714l164.184,150.961L-20.657,736.333z"/>
	<path fill="#74998F" stroke="#74998F" stroke-width="1.5" d="M-20.657,736.333l125.496,204.675l68.287-149.777L-20.657,736.333z"/>
	<path fill="#74A3A0" stroke="#74A3A0" stroke-width="1.5" d="M-20.657,736.333l193.783,54.897l-71.67-90.662L-20.657,736.333z"/>
	<path fill="#6FA2A1" stroke="#6FA2A1" stroke-width="1.5" d="M101.456,700.568l71.67,90.662L241,702.126L101.456,700.568z"/>
	<path fill="#6C9892" stroke="#6C9892" stroke-width="1.5" d="M241,702.126l-67.874,89.104l70.878,104.432L241,702.126z"/>
	<path fill="#689894" stroke="#689894" stroke-width="1.5" d="M241,702.126l3.004,193.536L386.671,744.08L241,702.126z"/>
	<path fill="#638F87" stroke="#638F87" stroke-width="1.5" d="M386.671,744.08L244.004,895.662l189.056-22.624L386.671,744.08z"/>
	<path fill="#5B918C" stroke="#5B918C" stroke-width="1.5" d="M386.671,744.08l46.389,128.958l68.909-74.574L386.671,744.08z"/>
	<path fill="#599697" stroke="#599697" stroke-width="1.5" d="M386.671,744.08l115.298,54.384l-3.595-72.243L386.671,744.08z"/>
	<path fill="#519192" stroke="#519192" stroke-width="1.5" d="M498.374,726.221l3.595,72.243l156.767-13.66L498.374,726.221z"/>
	<path fill="#4A959B" stroke="#4A959B" stroke-width="1.5" d="M498.374,726.221l160.361,58.583l48.768-134.26L498.374,726.221z"/>
	<path fill="#3E9297" stroke="#3E9297" stroke-width="1.5" d="M707.503,650.544l-48.768,134.26l183.933-76.42L707.503,650.544z"/>
	<path fill="#3C8986" stroke="#3C8986" stroke-width="1.5" d="M842.668,708.384l-183.933,76.42l119.497,73.369L842.668,708.384z"/>
	<path fill="#33837B" stroke="#33837B" stroke-width="1.5" d="M842.668,708.384l-64.436,149.789l113.013-1.926L842.668,708.384z"/>
	<path fill="#2D857C" stroke="#2D857C" stroke-width="1.5" d="M842.668,708.384l48.577,147.863l61.646-90.33L842.668,708.384z"/>
	<path fill="#247E70" stroke="#247E70" stroke-width="1.5" d="M952.892,765.917l-61.646,90.33l169.328-54.604L952.892,765.917z"/>
	<path fill="#1E7F72" stroke="#1E7F72" stroke-width="1.5" d="M952.892,765.917l107.682,35.726l57.045-59.239L952.892,765.917z"/>
	<path fill="#1B7966" stroke="#1B7966" stroke-width="1.5" d="M1117.618,742.403l-57.045,59.239l136.109,23.391L1117.618,742.403z"
		/>
	<path fill="#197C6A" stroke="#197C6A" stroke-width="1.5" d="M1117.618,742.403l79.064,82.63l-2.66-146.331L1117.618,742.403z"/>
	<path fill="#167660" stroke="#167660" stroke-width="1.5" d="M1194.022,678.702l2.66,146.331l203.912-64.903L1194.022,678.702z"/>
	<path fill="#136B4D" stroke="#136B4D" stroke-width="1.5" d="M1400.595,760.13l-203.912,64.903l179.006,38.267L1400.595,760.13z"/>
	<path fill="#126847" stroke="#126847" stroke-width="1.5" d="M1400.595,760.13l-24.906,103.17l70.572-56.129L1400.595,760.13z"/>
	<path fill="#126A4B" stroke="#126A4B" stroke-width="1.5" d="M1400.595,760.13l45.666,47.041l96.719-80.561L1400.595,760.13z"/>
	<path fill="#12613C" stroke="#12613C" stroke-width="1.5" d="M1542.979,726.61l-96.719,80.561l199.074,56.857L1542.979,726.61z"/>
	<path fill="#12623E" stroke="#12623E" stroke-width="1.5" d="M1542.979,726.61l102.355,137.418l-5.869-169.656L1542.979,726.61z"/>
	<path fill="#125E36" stroke="#125E36" stroke-width="1.5" d="M1639.466,694.372l5.869,169.656l173.297-143.246L1639.466,694.372z"
		/>
	<path fill="#125525" stroke="#125525" stroke-width="1.5" d="M1818.632,720.782l-173.297,143.246l165.818-16.211L1818.632,720.782z
		"/>
	<path fill="#8DA894" stroke="#8DA894" stroke-width="1.5" d="M-355.972,784.539l-30.683,121.805l107.374-59.046L-355.972,784.539z"
		/>
	<path fill="#8BA28B" stroke="#8BA28B" stroke-width="1.5" d="M-279.28,847.298l-107.374,59.046l116.804-1.219L-279.28,847.298z"/>
	<path fill="#87A18D" stroke="#87A18D" stroke-width="1.5" d="M-279.28,847.298l9.43,57.827l99.364-66.931L-279.28,847.298z"/>
	<path fill="#859880" stroke="#859880" stroke-width="1.5" d="M-170.486,838.194l-99.364,66.931l121.325,119.599L-170.486,838.194z"
		/>
	<path fill="#819A86" stroke="#819A86" stroke-width="1.5" d="M-170.486,838.194l21.961,186.529l89.181-234.677L-170.486,838.194z"
		/>
	<path fill="#7D917A" stroke="#7D917A" stroke-width="1.5" d="M-59.345,790.047l-89.181,234.677L51.898,983.22L-59.345,790.047z"/>
	<path fill="#78917E" stroke="#78917E" stroke-width="1.5" d="M-59.345,790.047L51.898,983.22l52.94-42.212L-59.345,790.047z"/>
	<path fill="#6F9082" stroke="#6F9082" stroke-width="1.5" d="M173.126,791.23l-68.287,149.777l139.165-45.346L173.126,791.23z"/>
	<path fill="#6E8873" stroke="#6E8873" stroke-width="1.5" d="M244.004,895.662l-139.165,45.346l120.597,50.817L244.004,895.662z"/>
	<path fill="#67836F" stroke="#67836F" stroke-width="1.5" d="M244.004,895.662l-18.568,96.163l209.883-12.198L244.004,895.662z"/>
	<path fill="#628576" stroke="#628576" stroke-width="1.5" d="M244.004,895.662l191.314,83.965l-2.259-106.589L244.004,895.662z"/>
	<path fill="#588172" stroke="#588172" stroke-width="1.5" d="M433.06,873.038l2.259,106.589l129.575-60.375L433.06,873.038z"/>
	<path fill="#55887F" stroke="#55887F" stroke-width="1.5" d="M433.06,873.038l131.834,46.214l-62.925-120.788L433.06,873.038z"/>
	<path fill="#4E8984" stroke="#4E8984" stroke-width="1.5" d="M501.969,798.464l62.925,120.788l93.842-134.448L501.969,798.464z"/>
	<path fill="#46847E" stroke="#46847E" stroke-width="1.5" d="M658.735,784.804l-93.842,134.448l213.339-61.079L658.735,784.804z"/>
	<path fill="#457A6D" stroke="#457A6D" stroke-width="1.5" d="M778.232,858.173l-213.339,61.079L691.859,1019.3L778.232,858.173z"/>
	<path fill="#3A7460" stroke="#3A7460" stroke-width="1.5" d="M778.232,858.173L691.859,1019.3l159.181-32.104L778.232,858.173z"/>
	<path fill="#337866" stroke="#337866" stroke-width="1.5" d="M778.232,858.173l72.808,129.023l40.205-130.949L778.232,858.173z"/>
	<path fill="#2D715A" stroke="#2D715A" stroke-width="1.5" d="M891.245,856.247L851.04,987.196l78.324-9.197L891.245,856.247z"/>
	<path fill="#257662" stroke="#257662" stroke-width="1.5" d="M891.245,856.247l38.119,121.752l131.209-176.356L891.245,856.247z"/>
	<path fill="#206F53" stroke="#206F53" stroke-width="1.5" d="M1060.573,801.643L929.364,977.999l126.151,20.753L1060.573,801.643z"
		/>
	<path fill="#1C6A4C" stroke="#1C6A4C" stroke-width="1.5" d="M1060.573,801.643l-5.058,197.109l152.825-39.735L1060.573,801.643z"
		/>
	<path fill="#1A6F54" stroke="#1A6F54" stroke-width="1.5" d="M1060.573,801.643l147.768,157.374l-11.658-133.983L1060.573,801.643z
		"/>
	<path fill="#166645" stroke="#166645" stroke-width="1.5" d="M1196.683,825.033l11.658,133.983l167.348-95.717L1196.683,825.033z"
		/>
	<path fill="#135E36" stroke="#135E36" stroke-width="1.5" d="M1375.688,863.3l-167.348,95.717l205.834-22.444L1375.688,863.3z"/>
	<path fill="#12603A" stroke="#12603A" stroke-width="1.5" d="M1375.688,863.3l38.486,73.272l32.086-129.401L1375.688,863.3z"/>
	<path fill="#125B32" stroke="#125B32" stroke-width="1.5" d="M1446.261,807.171l-32.086,129.401l11.016,13.987L1446.261,807.171z"
		/>
	<path fill="#125A30" stroke="#125A30" stroke-width="1.5" d="M1446.261,807.171l-21.07,143.389l220.145-86.531L1446.261,807.171z"
		/>
	<path fill="#12501D" stroke="#12501D" stroke-width="1.5" d="M1645.335,864.028L1425.19,950.56l166.959,57.148L1645.335,864.028z"
		/>
	<path fill="#124A12" stroke="#124A12" stroke-width="1.5" d="M1645.335,864.028l-53.186,143.68l161.637-55.45L1645.335,864.028z"/>
	<path fill="#124D17" stroke="#124D17" stroke-width="1.5" d="M1645.335,864.028l108.451,88.229l57.367-104.44L1645.335,864.028z"/>
	<path fill="#89997C" stroke="#89997C" stroke-width="1.5" d="M-386.654,906.344l238.129,118.38l-121.325-119.599L-386.654,906.344z
		"/>
	<path fill="#6A7D6F" stroke="#6A7D6F" stroke-width="1.5" d="M-148.525,1024.724l840.385-5.424l-466.424-27.475L-148.525,1024.724z
		"/>
	<path fill="#778573" stroke="#778573" stroke-width="1.5" d="M-148.525,1024.724l373.961-32.898L51.898,983.22L-148.525,1024.724z"
		/>
	<path fill="#728671" stroke="#728671" stroke-width="1.5" d="M51.898,983.22l173.537,8.605l-120.597-50.817L51.898,983.22z"/>
	<path fill="#5A796C" stroke="#5A796C" stroke-width="1.5" d="M225.436,991.825l466.424,27.475l-256.541-39.673L225.436,991.825z"/>
	<path fill="#4F786A" stroke="#4F786A" stroke-width="1.5" d="M435.318,979.627l256.541,39.673L564.894,919.252L435.318,979.627z"/>
	<path fill="#1C5F43" stroke="#1C5F43" stroke-width="1.5" d="M691.859,1019.3l900.29-11.592l-536.634-8.956L691.859,1019.3z"/>
	<path fill="#306B58" stroke="#306B58" stroke-width="1.5" d="M691.859,1019.3l363.656-20.548L851.04,987.196L691.859,1019.3z"/>
	<path fill="#276A52" stroke="#276A52" stroke-width="1.5" d="M851.04,987.196l204.476,11.556l-126.151-20.753L851.04,987.196z"/>
	<path fill="#155933" stroke="#155933" stroke-width="1.5" d="M1055.516,998.752l536.634,8.956l-383.809-48.691L1055.516,998.752z"
		/>
	<path fill="#125427" stroke="#125427" stroke-width="1.5" d="M1208.341,959.017l383.809,48.691L1425.19,950.56L1208.341,959.017z"
		/>
	<path fill="#125A2F" stroke="#125A2F" stroke-width="1.5" d="M1208.341,959.017l216.85-8.457l-11.016-13.987L1208.341,959.017z"/>
</g>
</svg>
